# This file uses centimeters as units for non-parametric coordinates.

g default
v 1.032691 3.552721 -1.149277
v 1.966240 2.839660 -1.394287
v 2.253185 4.076002 -0.958990
vt 0.000000 1.000000
vt 1.000000 1.000000
vt 0.499748 0.000000
vn 0.005192 0.331025 -0.943608
vn 0.005192 0.331025 -0.943608
vn 0.005192 0.331025 -0.943608
s off
g pPlane6
f 1/1/1 3/3/2 2/2/3
g default
v 0.000000 4.191620 -0.863669
v 2.178408 2.382742 -1.334655
v 0.000000 2.772488 -1.387511
v 1.180219 1.213171 -2.733375
v 1.658385 3.448704 -1.037082
v 1.147818 2.361358 -1.759841
v 0.841469 3.515202 -1.098188
v 0.545096 2.646221 -1.559151
v 1.293188 2.046392 -2.026897
v 1.961860 2.734919 -1.236342
v 0.000000 4.191620 -0.863669
v -2.178408 2.382742 -1.334655
v -0.000000 2.772488 -1.387511
v -1.180219 1.213171 -2.733375
v -1.658385 3.448704 -1.037082
v -1.147818 2.361358 -1.759841
v -0.841469 3.515202 -1.098188
v -0.545096 2.646221 -1.559151
v -1.293188 2.046392 -2.026897
v -1.961860 2.734919 -1.236342
vt 0.000000 0.000000
vt 1.000000 0.000000
vt 0.000000 1.000000
vt 1.000000 1.000000
vt 0.535098 0.000000
vt 0.514783 1.000000
vt 0.232822 0.000000
vt 0.207758 1.000000
vt 0.647886 1.000000
vt 0.846404 0.000000
vt 0.000000 1.000000
vt 0.000000 0.000000
vt 0.232822 0.000000
vt 0.207758 1.000000
vt 0.647886 1.000000
vt 0.846404 0.000000
vt 1.000000 0.000000
vt 1.000000 1.000000
vt 0.535098 0.000000
vt 0.514783 1.000000
vn -0.037297 0.399135 -0.916133
vn -0.037297 0.399135 -0.916133
vn -0.000980 0.449887 -0.893085
vn 0.003747 0.456347 -0.889794
vn 0.361287 0.532731 -0.765291
vn 0.331162 0.517346 -0.789104
vn 0.380125 0.542042 -0.749464
vn 0.380125 0.542042 -0.749464
vn 0.122134 0.506651 -0.853456
vn 0.180161 0.505679 -0.843700
vn 0.037297 0.399135 -0.916133
vn -0.003747 0.456348 -0.889794
vn 0.000980 0.449887 -0.893085
vn 0.037297 0.399135 -0.916133
vn -0.361287 0.532731 -0.765291
vn -0.380125 0.542042 -0.749464
vn -0.380125 0.542042 -0.749464
vn -0.331162 0.517346 -0.789104
vn -0.180161 0.505679 -0.843700
vn -0.122134 0.506651 -0.853456
s 1
g pPlane5
f 6/6/4 4/4/5 10/10/6 11/11/7
f 12/12/8 13/13/9 5/5/10 7/7/11
f 10/10/6 8/8/12 9/9/13 11/11/7
f 8/8/12 13/13/9 12/12/8 9/9/13
s 3
f 16/14/14 21/17/15 20/16/16 14/15/17
f 22/18/18 17/21/19 15/20/20 23/19/21
f 20/16/16 21/17/15 19/23/22 18/22/23
f 18/22/23 19/23/22 22/18/18 23/19/21
g default
v 2.392994 2.270109 -1.593468
v 2.184870 1.969441 -2.208137
v 2.365026 1.438698 -2.242893
v 3.301585 1.777068 -1.909112
v 2.814861 1.639340 -2.356454
v 2.856843 1.133125 -2.326579
v 3.783419 1.341620 -2.525891
v 3.340084 1.276342 -2.706337
v 3.433965 0.742538 -2.546657
v 4.147846 0.704542 -3.167051
v 3.781654 0.768652 -3.177607
v 3.842556 0.383768 -3.001020
v 4.083595 0.000000 -4.071459
v 2.033301 2.568050 -1.329196
v 2.442897 2.382737 -1.494058
v 2.035794 1.825775 -2.503941
v 1.037510 1.295960 -2.868525
v 1.664597 1.250551 -3.007464
v 0.229758 -0.006150 -3.914960
v 0.821322 0.396665 -3.621527
v 2.558072 1.723138 -1.509688
v 2.444848 1.198191 -2.297992
v 1.860141 0.851326 -3.062476
v 0.837947 0.071055 -3.730406
v 2.503155 0.654709 -2.581076
v 2.136065 0.515643 -3.105249
v 1.512466 1.971386 -2.180067
vt 0.000000 0.000000
vt 1.000000 0.000000
vt 0.000000 1.000000
vt 0.000000 0.000000
vt 1.000000 0.000000
vt 0.000000 1.000000
vt 0.000000 0.000000
vt 1.000000 0.000000
vt 1.000000 1.000000
vt 0.000000 1.000000
vt 0.000000 0.000000
vt 1.000000 0.000000
vt 1.000000 1.000000
vt 0.000000 1.000000
vt 0.000000 0.000000
vt 1.000000 0.000000
vt 1.000000 1.000000
vt 0.000000 1.000000
vt 0.000000 0.000000
vt 1.000000 0.000000
vt 1.000000 1.000000
vt 0.000000 1.000000
vt 0.000000 0.000000
vt 1.000000 0.000000
vt 0.105290 0.996448
vt 0.000000 0.000000
vt 1.000000 0.000000
vt 0.992985 1.000055
vt 0.412380 0.476411
vt 0.625000 0.500000
vt 0.625000 0.750000
vt 0.836664 0.000000
vt 1.000000 1.000000
vt 0.000000 1.000000
vt 0.000000 0.000000
vt 0.000000 0.000000
vt 1.000000 0.000000
vt 1.000000 1.000000
vt 0.000000 1.000000
vt 0.000000 0.000000
vt 1.000000 0.000000
vt 1.000000 1.000000
vt 0.000000 1.000000
vt 0.000000 0.000000
vt 1.000000 0.000000
vt 1.000000 1.000000
vt 0.000000 1.000000
vt 0.375000 0.750000
vt 0.441288 0.331134
vt 0.375000 0.000000
vt 0.625000 0.040834
vt 0.625000 0.250000
vn 0.277787 0.810175 -0.516188
vn 0.277787 0.810175 -0.516188
vn 0.227224 0.824559 -0.518143
vn 0.238298 0.821618 -0.517840
vn -0.226101 -0.043854 -0.973116
vn -0.226101 -0.043854 -0.973116
vn -0.359524 -0.111786 -0.926416
vn -0.483280 -0.176532 -0.857483
vn 0.160992 0.796107 -0.583349
vn 0.162628 0.807413 -0.567130
vn -0.668570 -0.256334 -0.698073
vn -0.757360 -0.287156 -0.586471
vn 0.153134 0.757338 -0.634815
vn 0.153053 0.750178 -0.643279
vn -0.883918 -0.285479 -0.370392
vn -0.906067 -0.272552 -0.323664
vn 0.153251 0.774255 -0.614039
vn -0.966118 -0.216990 -0.139754
vn -0.118186 0.654038 -0.747172
vn -0.118186 0.654038 -0.747172
vn -0.118186 0.654038 -0.747172
vn 0.859753 0.287767 -0.421919
vn 0.859753 0.287767 -0.421919
vn 0.859753 0.287767 -0.421919
vn 0.859753 0.287767 -0.421919
vn 0.655561 0.283095 -0.700069
vn 0.655561 0.283095 -0.700069
vn 0.655561 0.283095 -0.700069
vn 0.655561 0.283095 -0.700069
vn 0.345847 0.302093 -0.888330
vn 0.345847 0.302093 -0.888330
vn 0.345847 0.302093 -0.888330
vn 0.345847 0.302093 -0.888330
vn 0.616746 0.468831 -0.632315
vn 0.616746 0.468831 -0.632315
vn 0.616746 0.468831 -0.632315
vn 0.616746 0.468831 -0.632315
vn -0.067102 0.649976 -0.756987
vn -0.067102 0.649976 -0.756987
vn -0.067102 0.649976 -0.756987
vn -0.054240 0.800712 -0.596589
vn 0.020055 0.845230 -0.534026
vn 0.020055 0.845230 -0.534026
vn -0.070215 0.789890 -0.609216
vn -0.145893 0.732483 -0.664970
vn -0.145893 0.732483 -0.664970
s 1
g pCube18
f 25/24/24 24/25/25 27/28/26 28/27/27
s 2
f 26/26/28 25/24/29 28/27/30 29/29/31
s 1
f 28/30/27 27/31/26 30/32/32 31/33/33
s 2
f 29/34/31 28/35/30 31/36/34 32/37/35
s 1
f 31/38/33 30/39/32 33/40/36 34/41/37
s 2
f 32/42/35 31/43/34 34/44/38 35/45/39
s 1
f 34/46/37 33/47/36 36/48/40
s 2
f 35/49/39 34/50/38 36/51/41
s off
f 40/52/42 41/53/43 43/54/44
f 38/55/45 44/56/46 45/57/47 39/58/48
f 41/59/49 39/60/50 45/61/51 46/62/52
f 43/63/53 41/64/54 46/65/55 47/66/56
f 46/67/57 45/68/58 48/69/59 49/70/60
f 40/52/61 43/54/62 42/71/63
s 3
f 50/72/64 37/73/65 38/74/66 39/75/67
f 39/75/67 41/53/68 40/52/69 50/72/64
g default
v -1.682957 2.877249 -1.495651
v -1.501330 2.927850 -1.523372
v -1.877251 3.054908 -1.325558
v -1.658063 3.148893 -1.339066
v -1.431749 3.448952 -1.203676
v -1.479913 2.790756 -1.527084
v -1.203667 3.893267 -1.117131
v -1.232706 3.066273 -1.544687
v -0.993718 2.953713 -1.520865
v -1.214058 2.798665 -1.546935
v -0.693495 2.900851 -1.599130
v -0.945960 2.680686 -1.647316
v -1.021614 2.580757 -1.819140
v -1.256273 2.765574 -1.580880
v -1.004698 2.387014 -2.019409
v -1.444769 2.644909 -1.662605
v -1.760611 2.345742 -1.916520
v -1.623324 2.159777 -2.116632
v -1.551297 2.657605 -1.611526
v -1.335033 2.449220 -1.840109
v -1.761141 2.427124 -1.769592
v -1.486713 2.921863 -1.544289
v -2.156348 2.282175 -1.685369
v -2.076329 2.695012 -1.426268
v -1.576100 2.076640 -2.207977
v -1.565135 1.775081 -2.458715
v -1.397260 2.274176 -2.044327
v -1.353508 1.894311 -2.360272
vt 0.375000 0.500000
vt 0.625000 0.500000
vt 0.375000 0.750000
vt 0.625000 0.750000
vt 0.625000 0.500000
vt 0.375000 0.500000
vt 0.625000 0.750000
vt 0.375000 0.750000
vt 0.625000 0.500000
vt 0.375000 0.500000
vt 0.625000 0.750000
vt 0.375000 0.750000
vt 0.625000 0.500000
vt 0.375000 0.500000
vt 0.625000 0.750000
vt 0.375000 0.750000
vt 0.625000 0.500000
vt 0.375000 0.500000
vt 0.625000 0.750000
vt 0.375000 0.750000
vt 0.625000 0.500000
vt 0.375000 0.500000
vt 0.625000 0.750000
vt 0.375000 0.750000
vt 0.625000 0.500000
vt 0.375000 0.500000
vt 0.625000 0.750000
vt 0.375000 0.750000
vn -0.265071 0.499660 -0.824668
vn -0.265071 0.499660 -0.824668
vn -0.265071 0.499660 -0.824668
vn -0.265071 0.499660 -0.824668
vn -0.509874 0.409133 -0.756729
vn -0.509874 0.409133 -0.756729
vn -0.509874 0.409133 -0.756729
vn -0.509874 0.409133 -0.756729
vn -0.167358 0.390078 -0.905445
vn -0.167358 0.390078 -0.905445
vn -0.167358 0.390078 -0.905445
vn -0.167358 0.390078 -0.905445
vn -0.149943 0.704235 -0.693953
vn -0.149943 0.704235 -0.693953
vn -0.149943 0.704235 -0.693953
vn -0.149943 0.704235 -0.693953
vn -0.048558 0.714832 -0.697608
vn -0.048558 0.714832 -0.697608
vn -0.048558 0.714832 -0.697608
vn -0.048558 0.714832 -0.697608
vn -0.361129 0.544928 -0.756729
vn -0.361129 0.544928 -0.756729
vn -0.361129 0.544928 -0.756729
vn -0.361129 0.544928 -0.756729
vn -0.002467 0.639285 -0.768966
vn -0.002467 0.639285 -0.768966
vn -0.002467 0.639285 -0.768966
vn -0.002467 0.639285 -0.768966
s off
g group2_pCube19
f 51/76/70 53/78/71 54/79/72 52/77/73
f 55/81/74 57/83/75 58/82/76 56/80/77
f 59/85/78 61/87/79 62/86/80 60/84/81
f 63/89/82 65/91/83 66/90/84 64/88/85
f 67/93/86 69/95/87 70/94/88 68/92/89
f 71/97/90 73/99/91 74/98/92 72/96/93
f 75/101/94 77/103/95 78/102/96 76/100/97
g default
v -0.037719 4.970386 -0.604550
v 0.037719 4.970386 -0.604550
v -1.206064 3.207770 -1.315901
v 1.195968 3.122653 -1.337317
v 0.853629 3.770724 -1.088706
v 0.255307 3.303205 -1.277386
v 0.664996 3.741660 -1.100436
v 0.692313 3.635220 -1.143392
v 0.407242 3.517664 -1.190835
v -1.016277 3.646911 -1.138674
v -0.863971 3.265992 -1.292404
v -0.787096 3.613999 -1.151957
v -0.766503 3.466437 -1.211509
v 1.022667 3.592111 -1.147854
v 0.389023 3.300124 -1.265693
v 0.875606 3.600966 -1.144280
v 0.864658 3.517340 -1.178030
v 0.537199 3.448779 -1.205699
v -0.890923 3.715889 -1.110836
v -0.754508 3.303205 -1.277386
v -0.691685 3.664468 -1.131589
v -0.665127 3.472728 -1.208971
vt 0.375000 0.500000
vt 0.625000 0.500000
vt 0.375000 0.750000
vt 0.625000 0.750000
vt 0.625000 0.679894
vt 0.527239 0.750000
vt 0.602765 0.684252
vt 0.597956 0.700213
vt 0.559011 0.717841
vt 0.375000 0.695147
vt 0.408922 0.750000
vt 0.401053 0.704843
vt 0.410083 0.725211
vt 0.625000 0.687064
vt 0.536517 0.750000
vt 0.607840 0.690491
vt 0.602849 0.703044
vt 0.560750 0.723555
vt 0.375000 0.688117
vt 0.419500 0.750000
vt 0.399989 0.695827
vt 0.416735 0.724579
vn 0.000000 0.374249 -0.927328
vn 0.000000 0.374249 -0.927328
vn 0.000000 0.374249 -0.927328
vn 0.000000 0.374249 -0.927328
vn 0.000000 0.374249 -0.927328
vn -0.000000 0.374249 -0.927328
vn -0.000000 0.374249 -0.927328
vn -0.000000 0.374249 -0.927328
vn -0.000000 0.374249 -0.927328
vn -0.000000 0.374249 -0.927328
vn -0.000000 0.374249 -0.927328
vn 0.000000 0.374249 -0.927328
vn 0.000000 0.374249 -0.927328
vn 0.000000 0.374249 -0.927328
vn 0.000000 0.374249 -0.927328
vn 0.000000 0.374249 -0.927328
vn 0.000000 0.374249 -0.927328
vn 0.000000 0.374249 -0.927328
vn 0.000000 0.374249 -0.927328
vn 0.000000 0.374249 -0.927328
vn 0.000000 0.374249 -0.927328
vn 0.000000 0.374249 -0.927328
s off
g pCube19 group5
f 88/113/98 90/115/99 91/116/100 89/114/101 81/106/102
f 93/118/103 96/121/104 95/120/105 94/119/106 92/117/107 82/107/108
f 79/104/109 80/105/110 83/108/111 85/110/112 86/111/113 87/112/114 84/109/115 98/123/116 100/125/117 99/124/118 97/122/119
g default
v 1.682957 2.877249 -1.495651
v 1.501330 2.927850 -1.523372
v 1.877251 3.054908 -1.325558
v 1.658063 3.148893 -1.339066
v 1.431749 3.448952 -1.203676
v 1.479913 2.790756 -1.527084
v 1.203667 3.893267 -1.117131
v 1.232706 3.066273 -1.544687
v 0.993718 2.953713 -1.520865
v 1.214058 2.798665 -1.546935
v 0.693495 2.900851 -1.599130
v 0.945960 2.680686 -1.647316
v 1.021614 2.580757 -1.819140
v 1.256273 2.765574 -1.580880
v 1.004698 2.387014 -2.019409
v 1.444769 2.644909 -1.662605
v 1.760611 2.345742 -1.916520
v 1.623324 2.159777 -2.116632
v 1.551297 2.657605 -1.611526
v 1.335033 2.449220 -1.840109
v 1.761141 2.427124 -1.769592
v 1.486713 2.921863 -1.544289
v 2.156348 2.282175 -1.685369
v 2.076329 2.695012 -1.426268
v 1.576100 2.076640 -2.207977
v 1.565135 1.775081 -2.458715
v 1.397260 2.274176 -2.044327
v 1.353508 1.894311 -2.360272
vt 0.375000 0.500000
vt 0.625000 0.500000
vt 0.375000 0.750000
vt 0.625000 0.750000
vt 0.625000 0.500000
vt 0.375000 0.500000
vt 0.625000 0.750000
vt 0.375000 0.750000
vt 0.625000 0.500000
vt 0.375000 0.500000
vt 0.625000 0.750000
vt 0.375000 0.750000
vt 0.625000 0.500000
vt 0.375000 0.500000
vt 0.625000 0.750000
vt 0.375000 0.750000
vt 0.625000 0.500000
vt 0.375000 0.500000
vt 0.625000 0.750000
vt 0.375000 0.750000
vt 0.625000 0.500000
vt 0.375000 0.500000
vt 0.625000 0.750000
vt 0.375000 0.750000
vt 0.625000 0.500000
vt 0.375000 0.500000
vt 0.625000 0.750000
vt 0.375000 0.750000
vn 0.265071 0.499660 -0.824668
vn 0.265071 0.499660 -0.824668
vn 0.265071 0.499660 -0.824668
vn 0.265071 0.499660 -0.824668
vn 0.509874 0.409133 -0.756729
vn 0.509874 0.409133 -0.756729
vn 0.509874 0.409133 -0.756729
vn 0.509874 0.409133 -0.756729
vn 0.167358 0.390078 -0.905445
vn 0.167358 0.390078 -0.905445
vn 0.167358 0.390078 -0.905445
vn 0.167358 0.390078 -0.905445
vn 0.149943 0.704235 -0.693953
vn 0.149943 0.704235 -0.693952
vn 0.149943 0.704235 -0.693952
vn 0.149943 0.704235 -0.693952
vn 0.048558 0.714832 -0.697608
vn 0.048558 0.714832 -0.697608
vn 0.048558 0.714832 -0.697608
vn 0.048558 0.714832 -0.697608
vn 0.361129 0.544928 -0.756729
vn 0.361129 0.544928 -0.756729
vn 0.361129 0.544928 -0.756729
vn 0.361129 0.544928 -0.756729
vn 0.002466 0.639285 -0.768966
vn 0.002466 0.639285 -0.768966
vn 0.002466 0.639285 -0.768966
vn 0.002466 0.639285 -0.768966
s off
g group2_pCube16
f 101/126/120 102/127/121 104/129/122 103/128/123
f 105/131/124 106/130/125 108/132/126 107/133/127
f 109/135/128 110/134/129 112/136/130 111/137/131
f 113/139/132 114/138/133 116/140/134 115/141/135
f 117/143/136 118/142/137 120/144/138 119/145/139
f 121/147/140 122/146/141 124/148/142 123/149/143
f 125/151/144 126/150/145 128/152/146 127/153/147
g default
v -2.392994 2.270109 -1.593468
v -2.184870 1.969441 -2.208137
v -2.365026 1.438698 -2.242893
v -3.301585 1.777068 -1.909112
v -2.814861 1.639340 -2.356454
v -2.856843 1.133125 -2.326579
v -3.783419 1.341620 -2.525891
v -3.340084 1.276342 -2.706337
v -3.433965 0.742538 -2.546657
v -4.147846 0.704542 -3.167051
v -3.781654 0.768652 -3.177607
v -3.842556 0.383768 -3.001020
v -4.083595 0.000000 -4.071459
v -2.033301 2.568050 -1.329196
v -2.442897 2.382737 -1.494058
v -2.035794 1.825775 -2.503941
v -1.037510 1.295960 -2.868525
v -1.664597 1.250551 -3.007464
v -0.229758 -0.006150 -3.914960
v -0.821322 0.396665 -3.621527
v -2.558072 1.723138 -1.509688
v -2.444848 1.198191 -2.297992
v -1.860141 0.851326 -3.062476
v -0.837947 0.071055 -3.730406
v -2.503155 0.654709 -2.581076
v -2.136065 0.515643 -3.105249
v -1.512466 1.971386 -2.180067
vt 0.000000 0.000000
vt 1.000000 0.000000
vt 0.000000 1.000000
vt 0.000000 0.000000
vt 1.000000 0.000000
vt 0.000000 1.000000
vt 0.000000 0.000000
vt 1.000000 0.000000
vt 1.000000 1.000000
vt 0.000000 1.000000
vt 0.000000 0.000000
vt 1.000000 0.000000
vt 1.000000 1.000000
vt 0.000000 1.000000
vt 0.000000 0.000000
vt 1.000000 0.000000
vt 1.000000 1.000000
vt 0.000000 1.000000
vt 0.000000 0.000000
vt 1.000000 0.000000
vt 1.000000 1.000000
vt 0.000000 1.000000
vt 0.000000 0.000000
vt 1.000000 0.000000
vt 0.105290 0.996448
vt 0.000000 0.000000
vt 1.000000 0.000000
vt 0.992985 1.000055
vt 0.412380 0.476411
vt 0.625000 0.500000
vt 0.625000 0.750000
vt 0.836664 0.000000
vt 1.000000 1.000000
vt 0.000000 1.000000
vt 0.000000 0.000000
vt 0.000000 0.000000
vt 1.000000 0.000000
vt 1.000000 1.000000
vt 0.000000 1.000000
vt 0.000000 0.000000
vt 1.000000 0.000000
vt 1.000000 1.000000
vt 0.000000 1.000000
vt 0.000000 0.000000
vt 1.000000 0.000000
vt 1.000000 1.000000
vt 0.000000 1.000000
vt 0.375000 0.750000
vt 0.441288 0.331134
vt 0.375000 0.000000
vt 0.625000 0.040834
vt 0.625000 0.250000
vn -0.277787 0.810175 -0.516188
vn -0.238298 0.821618 -0.517839
vn -0.227224 0.824559 -0.518143
vn -0.277787 0.810175 -0.516188
vn 0.226101 -0.043854 -0.973116
vn 0.483280 -0.176532 -0.857483
vn 0.359523 -0.111786 -0.926416
vn 0.226101 -0.043854 -0.973116
vn -0.162628 0.807413 -0.567130
vn -0.160991 0.796107 -0.583349
vn 0.757359 -0.287156 -0.586471
vn 0.668570 -0.256334 -0.698074
vn -0.153053 0.750178 -0.643279
vn -0.153134 0.757338 -0.634815
vn 0.906067 -0.272553 -0.323664
vn 0.883918 -0.285479 -0.370392
vn -0.153251 0.774255 -0.614039
vn 0.966118 -0.216991 -0.139754
vn 0.118185 0.654038 -0.747172
vn 0.118185 0.654038 -0.747172
vn 0.118185 0.654038 -0.747172
vn -0.859753 0.287767 -0.421919
vn -0.859753 0.287767 -0.421919
vn -0.859753 0.287767 -0.421919
vn -0.859753 0.287767 -0.421919
vn -0.655561 0.283095 -0.700069
vn -0.655561 0.283095 -0.700069
vn -0.655561 0.283095 -0.700069
vn -0.655561 0.283095 -0.700069
vn -0.345847 0.302093 -0.888330
vn -0.345847 0.302093 -0.888330
vn -0.345847 0.302093 -0.888330
vn -0.345847 0.302093 -0.888330
vn -0.616746 0.468831 -0.632315
vn -0.616746 0.468831 -0.632315
vn -0.616746 0.468831 -0.632315
vn -0.616746 0.468831 -0.632315
vn 0.067101 0.649976 -0.756987
vn 0.067101 0.649976 -0.756987
vn 0.067101 0.649976 -0.756987
vn 0.054240 0.800712 -0.596589
vn 0.070215 0.789890 -0.609216
vn -0.020055 0.845230 -0.534026
vn -0.020055 0.845230 -0.534026
vn 0.145893 0.732482 -0.664970
vn 0.145893 0.732483 -0.664970
s 1
g pCube20
f 130/154/148 133/157/149 132/158/150 129/155/151
s 2
f 131/156/152 134/159/153 133/157/154 130/154/155
s 1
f 133/160/149 136/163/156 135/162/157 132/161/150
s 2
f 134/164/153 137/167/158 136/166/159 133/165/154
s 1
f 136/168/156 139/171/160 138/170/161 135/169/157
s 2
f 137/172/158 140/175/162 139/174/163 136/173/159
s 1
f 139/176/160 141/178/164 138/177/161
s 2
f 140/179/162 141/181/165 139/180/163
s off
f 145/182/166 148/184/167 146/183/168
f 143/185/169 144/188/170 150/187/171 149/186/172
f 146/189/173 151/192/174 150/191/175 144/190/176
f 148/193/177 152/196/178 151/195/179 146/194/180
f 151/197/181 154/200/182 153/199/183 150/198/184
f 145/182/185 147/201/186 148/184/187
s 3
f 155/202/188 144/205/189 143/204/190 142/203/191
f 144/205/189 155/202/188 145/182/192 146/183/193
g default
v -1.032691 3.552721 -1.149277
v -1.966240 2.839660 -1.394287
v -2.253185 4.076002 -0.958990
vt 0.000000 1.000000
vt 1.000000 1.000000
vt 0.499748 0.000000
vn -0.005192 0.331025 -0.943608
vn -0.005192 0.331025 -0.943608
vn -0.005192 0.331025 -0.943608
s off
g pPlane8
f 156/206/194 157/207/195 158/208/196
g default
v -0.053534 2.763983 -1.698423
v 0.177792 2.945253 -1.536800
v -0.026470 2.423239 -1.886148
v 0.293669 2.615848 -1.695730
v -0.381655 2.683954 -1.666934
v -0.611682 2.916233 -1.469136
v -0.118908 2.637254 -1.748867
v -0.429262 3.058134 -1.411197
v 0.018845 3.283628 -1.365568
v 0.249655 3.131042 -1.495643
v -0.444815 3.148629 -1.335784
v -0.197056 2.922132 -1.508291
v 0.427085 3.138605 -1.550060
v 0.806041 3.067226 -1.622341
v 0.139696 3.017385 -1.572394
v 0.610755 2.900435 -1.674659
vt 0.625000 0.500000
vt 0.375000 0.500000
vt 0.625000 0.750000
vt 0.375000 0.750000
vt 0.625000 0.500000
vt 0.375000 0.500000
vt 0.625000 0.750000
vt 0.375000 0.750000
vt 0.625000 0.500000
vt 0.375000 0.500000
vt 0.625000 0.750000
vt 0.375000 0.750000
vt 0.625000 0.500000
vt 0.375000 0.500000
vt 0.625000 0.750000
vt 0.375000 0.750000
vn 0.213244 0.484381 -0.848471
vn 0.213243 0.484381 -0.848471
vn 0.213244 0.484381 -0.848471
vn 0.213244 0.484381 -0.848471
vn -0.160539 0.542938 -0.824285
vn -0.160539 0.542938 -0.824285
vn -0.160539 0.542938 -0.824285
vn -0.160539 0.542938 -0.824285
vn -0.188653 0.456052 -0.869728
vn -0.188653 0.456052 -0.869728
vn -0.188653 0.456052 -0.869728
vn -0.188653 0.456052 -0.869728
vn -0.098255 0.400763 -0.910898
vn -0.098255 0.400763 -0.910898
vn -0.098255 0.400763 -0.910898
vn -0.098255 0.400763 -0.910898
s off
g group2_pCube18
f 159/210/197 160/209/198 162/211/199 161/212/200
f 163/214/201 164/213/202 166/215/203 165/216/204
f 167/218/205 168/217/206 170/219/207 169/220/208
f 171/222/209 172/221/210 174/223/211 173/224/212
g default
v -0.763212 3.354713 -1.367187
v -0.439931 3.265712 -1.359382
v -1.080982 3.155635 -1.474285
v -0.690816 3.002099 -1.480869
v -0.381655 2.683954 -1.666934
v -0.611682 2.916233 -1.469136
v -0.118908 2.637254 -1.748867
v -0.429262 3.058134 -1.411197
v 0.018845 3.283628 -1.365568
v 0.249655 3.131042 -1.495643
v -0.444815 3.148629 -1.335784
v -0.197056 2.922132 -1.508291
v 0.427085 3.138605 -1.550060
v 0.806041 3.067226 -1.622341
v 0.139696 3.017385 -1.572394
v 0.610755 2.900435 -1.674659
vt 0.625000 0.500000
vt 0.375000 0.500000
vt 0.625000 0.750000
vt 0.375000 0.750000
vt 0.625000 0.500000
vt 0.375000 0.500000
vt 0.625000 0.750000
vt 0.375000 0.750000
vt 0.625000 0.500000
vt 0.375000 0.500000
vt 0.625000 0.750000
vt 0.375000 0.750000
vt 0.625000 0.500000
vt 0.375000 0.500000
vt 0.625000 0.750000
vt 0.375000 0.750000
vn 0.112336 0.325720 -0.938769
vn 0.112336 0.325720 -0.938769
vn 0.112336 0.325720 -0.938769
vn 0.112336 0.325720 -0.938769
vn -0.160539 0.542938 -0.824285
vn -0.160539 0.542938 -0.824285
vn -0.160539 0.542938 -0.824285
vn -0.160539 0.542938 -0.824285
vn -0.188653 0.456052 -0.869728
vn -0.188653 0.456052 -0.869728
vn -0.188653 0.456052 -0.869728
vn -0.188653 0.456052 -0.869728
vn -0.098255 0.400763 -0.910898
vn -0.098255 0.400763 -0.910898
vn -0.098255 0.400763 -0.910898
vn -0.098255 0.400763 -0.910898
s off
g group2_pCube17
f 175/226/213 176/225/214 178/227/215 177/228/216
f 179/230/217 180/229/218 182/231/219 181/232/220
f 183/234/221 184/233/222 186/235/223 185/236/224
f 187/238/225 188/237/226 190/239/227 189/240/228
