# This file uses centimeters as units for non-parametric coordinates.

g default
v 12.055783 2.270109 -1.436266
v 11.847659 1.969441 -2.050935
v 12.027815 1.438698 -2.085691
v 12.964375 1.777068 -1.751910
v 12.477651 1.639340 -2.199252
v 12.519632 1.133125 -2.169377
v 13.446208 1.341620 -2.368689
v 13.002873 1.276342 -2.549135
v 13.096754 0.742538 -2.389455
v 13.810636 0.704542 -3.009849
v 13.444444 0.768652 -3.020405
v 13.505345 0.383768 -2.843818
v 13.746385 0.000000 -3.914257
v 11.696091 2.568050 -1.171994
v 12.105686 2.382737 -1.336856
v 11.698584 1.825775 -2.346739
v 10.700299 1.295960 -2.711323
v 11.327386 1.250551 -2.850262
v 9.892548 -0.006150 -3.757758
v 10.484112 0.396665 -3.464325
v 12.220861 1.723138 -1.352486
v 12.107637 1.198191 -2.140790
v 11.522930 0.851326 -2.905274
v 10.500736 0.071055 -3.573204
v 12.165944 0.654709 -2.423874
v 11.798854 0.515643 -2.948047
v 11.175256 1.971386 -2.022865
vt 0.000000 0.000000
vt 1.000000 0.000000
vt 0.000000 1.000000
vt 0.000000 0.000000
vt 1.000000 0.000000
vt 0.000000 1.000000
vt 0.000000 0.000000
vt 1.000000 0.000000
vt 1.000000 1.000000
vt 0.000000 1.000000
vt 0.000000 0.000000
vt 1.000000 0.000000
vt 1.000000 1.000000
vt 0.000000 1.000000
vt 0.000000 0.000000
vt 1.000000 0.000000
vt 1.000000 1.000000
vt 0.000000 1.000000
vt 0.000000 0.000000
vt 1.000000 0.000000
vt 1.000000 1.000000
vt 0.000000 1.000000
vt 0.000000 0.000000
vt 1.000000 0.000000
vt 0.105290 0.996448
vt 0.000000 0.000000
vt 1.000000 0.000000
vt 0.992985 1.000055
vt 0.412380 0.476411
vt 0.625000 0.500000
vt 0.625000 0.750000
vt 0.836664 0.000000
vt 1.000000 1.000000
vt 0.000000 1.000000
vt 0.000000 0.000000
vt 0.000000 0.000000
vt 1.000000 0.000000
vt 1.000000 1.000000
vt 0.000000 1.000000
vt 0.000000 0.000000
vt 1.000000 0.000000
vt 1.000000 1.000000
vt 0.000000 1.000000
vt 0.000000 0.000000
vt 1.000000 0.000000
vt 1.000000 1.000000
vt 0.000000 1.000000
vt 0.375000 0.750000
vt 0.441288 0.331134
vt 0.375000 0.000000
vt 0.625000 0.040834
vt 0.625000 0.250000
vn 0.277787 0.810175 -0.516189
vn 0.277787 0.810175 -0.516189
vn 0.227224 0.824559 -0.518143
vn 0.238298 0.821618 -0.517840
vn -0.226102 -0.043854 -0.973116
vn -0.226102 -0.043854 -0.973116
vn -0.359524 -0.111786 -0.926416
vn -0.483280 -0.176532 -0.857483
vn 0.160991 0.796107 -0.583348
vn 0.162628 0.807414 -0.567129
vn -0.668570 -0.256334 -0.698074
vn -0.757359 -0.287156 -0.586471
vn 0.153134 0.757338 -0.634815
vn 0.153053 0.750178 -0.643278
vn -0.883918 -0.285479 -0.370392
vn -0.906067 -0.272551 -0.323664
vn 0.153251 0.774254 -0.614040
vn -0.966119 -0.216988 -0.139753
vn -0.118185 0.654038 -0.747172
vn -0.118185 0.654038 -0.747172
vn -0.118185 0.654038 -0.747172
vn 0.859753 0.287766 -0.421919
vn 0.859753 0.287766 -0.421919
vn 0.859753 0.287766 -0.421919
vn 0.859753 0.287766 -0.421919
vn 0.655561 0.283096 -0.700069
vn 0.655561 0.283096 -0.700069
vn 0.655561 0.283096 -0.700069
vn 0.655561 0.283096 -0.700069
vn 0.345847 0.302094 -0.888330
vn 0.345847 0.302094 -0.888330
vn 0.345847 0.302094 -0.888330
vn 0.345847 0.302094 -0.888330
vn 0.616746 0.468831 -0.632315
vn 0.616746 0.468831 -0.632315
vn 0.616746 0.468831 -0.632315
vn 0.616746 0.468831 -0.632315
vn -0.067102 0.649976 -0.756986
vn -0.067102 0.649976 -0.756986
vn -0.067102 0.649976 -0.756986
vn -0.054240 0.800712 -0.596589
vn 0.020055 0.845230 -0.534026
vn 0.020055 0.845230 -0.534026
vn -0.070216 0.789890 -0.609216
vn -0.145893 0.732483 -0.664969
vn -0.145893 0.732483 -0.664969
s 1
g pCube18
f 2/1/1 1/2/2 4/5/3 5/4/4
s 2
f 3/3/5 2/1/6 5/4/7 6/6/8
s 1
f 5/7/4 4/8/3 7/9/9 8/10/10
s 2
f 6/11/8 5/12/7 8/13/11 9/14/12
s 1
f 8/15/10 7/16/9 10/17/13 11/18/14
s 2
f 9/19/12 8/20/11 11/21/15 12/22/16
s 1
f 11/23/14 10/24/13 13/25/17
s 2
f 12/26/16 11/27/15 13/28/18
s off
f 17/29/19 18/30/20 20/31/21
f 15/32/22 21/33/23 22/34/24 16/35/25
f 18/36/26 16/37/27 22/38/28 23/39/29
f 20/40/30 18/41/31 23/42/32 24/43/33
f 23/44/34 22/45/35 25/46/36 26/47/37
f 17/29/38 20/31/39 19/48/40
s 3
f 27/49/41 14/50/42 15/51/43 16/52/44
f 16/52/44 18/30/45 17/29/46 27/49/41
