# Alias OBJ Model File
# Exported from SketchUp, (c) 2000-2012 Trimble Navigation Limited
# File units = millimeters

mtllib Simple monolith.mtl

g Mesh1 Model

usemtl FrontColor
v 0 0 -2135.8
vt 0 84.0868
vn 0 -1 -0
v 1320 0 -2135.8
vt -51.9685 84.0868
v 1320 0 -0
vt -51.9685 0
v 0 0 -0
vt 0 0
f 1/1/1 2/2/1 3/3/1 4/4/1 

vn 0 0 -1
v 0 4224.9 -2135.8
vt 0 166.335
v 2025.7 987.016 -2135.8
vt -79.7521 38.8589
f 1/4/2 5/5/2 6/6/2 2/3/2 

vt -84.0868 0
vn -1 0 -0
v 0 1916.19 -1363.31
vt -53.6737 75.4405
vt -84.0868 166.335
f 1/7/3 4/4/3 7/8/3 5/9/3 

v 631.26 1586.94 -817.617
vt 8.04528 74.1122
vn -0.372998 0.537881 0.756013
vt -23.7482 89.4883
f 8/10/4 7/11/4 4/4/4

vt -30.5611 84.3516
vn -0.549588 0.261411 0.793484
vt 2.10233 70.9223
v 1058 3243.83 -1067.9
vt 10.3032 138.504
f 7/12/5 8/13/5 9/14/5

v 2305.67 3051.92 -2135.8
vt 123.609 119.714
vn 0.644882 -0.0508984 0.762586
vt 58.9538 127.279
vt 39.7624 61.9629
f 10/15/6 9/16/6 8/17/6

vt 122.529 51.5183
vn 0.425316 0.83602 0.346666
vt 65.1786 135.682
vt 58.9058 65.2888
f 10/18/7 5/19/7 9/20/7

vt -90.7743 120.154
vn 4.59284e-16 2.8734e-16 -1
vt 3.86197e-14 166.335
f 10/21/8 6/6/8 5/22/8

vt 123.716 119.465
vn 0.663462 -0.0899537 0.742783
vt 39.9789 61.5546
vt 115.495 37.8392
f 10/23/9 8/24/9 6/25/9

vt 38.9997 53.1732
vn 0.540375 -0.386362 0.747475
vt 91.3795 -14.5649
vt 113.895 27.5655
f 8/26/10 2/27/10 6/28/10

vt 32.1896 47.4186
vn 0.917331 0.398125 1.16077e-17
vt 6.57597e-16 -20.69
vt 84.0868 -20.69
f 8/29/11 3/30/11 2/31/11

vt 24.8527 70.2829
vn 3.68115e-18 0.458001 0.888952
vt 51.9685 -9.85625e-17
f 8/32/12 4/4/12 3/33/12

vt -30.753 84.3883
vn -0.552562 0.264467 0.7904
vt 10.0492 138.588
vt -48.1786 178.638
f 7/34/13 9/35/13 5/36/13

