# This file uses centimeters as units for non-parametric coordinates.

mtllib tetrasubd.mtl
g default
v -0.500000 -0.469734 -0.866026
v -0.500000 -0.469734 0.866025
v 1.000000 -0.469734 0.000000
v 0.000000 0.730302 0.000000
v 0.000000 0.000000 0.000000
v 1.000000 -0.469734 0.000000
v 0.000000 0.000000 0.000000
vt 0.375000 0.033494
vt 0.375000 0.466506
vt 0.750000 0.250000
vt 0.416667 0.500000
vt 0.583333 0.500000
vt 0.750000 0.500000
vt 0.500000 1.000000
vt 0.000000 0.000000
vt 1.000000 0.000000
vt 0.500000 1.000000
vt 0.000000 0.000000
vt 1.000000 0.000000
vt 0.500000 1.000000
vt 0.000000 0.000000
vt 1.000000 0.000000
vt 0.500000 1.000000
vn 0.000000 -1.000000 0.000000
vn 0.000000 -1.000000 0.000000
vn 0.000000 -1.000000 0.000000
vn 0.461541 0.384606 0.799412
vn 0.461541 0.384606 0.799412
vn 0.461541 0.384606 0.799412
vn 0.461541 0.384606 -0.799412
vn 0.461541 0.384606 -0.799412
vn 0.461541 0.384606 -0.799412
vn -0.866025 0.000000 -0.500000
vn -0.500000 0.000000 -0.866025
vn -0.500000 0.000000 -0.866025
vn 0.000000 0.000000 -1.000000
vn -0.866025 0.000000 0.500000
vn -0.866025 0.000000 0.500000
vn -0.866025 0.000000 0.500000
s off
g pCone1
usemtl initialShadingGroup
f 1/1/1 3/3/2 2/2/3
f 2/4/4 3/5/5 4/7/6
f 3/5/7 1/6/8 4/7/9
s 1
f 2/8/10 4/9/11 5/10/12
f 5/11/12 4/12/11 6/13/13
s off
f 4/14/14 1/15/15 7/16/16
