# This file uses centimeters as units for non-parametric coordinates.

mtllib Shard 02.mtl
g default
v 1.501849 0.000000 0.804641
v 1.769240 0.000000 -0.273673
v -0.654680 0.000000 0.274999
v 0.329091 0.645231 -0.663673
v -0.444075 0.000000 -2.254830
v 0.678636 0.000000 1.898724
v 0.697540 0.778996 0.733107
vt 0.250000 0.500000
vt 0.416667 0.500000
vt 0.583333 0.500000
vt 0.501778 0.750000
vt 0.250000 0.500000
vt 0.416667 0.500000
vt 0.500000 1.000000
vt 0.583333 0.500000
vt 0.750000 0.500000
vt 0.250000 0.500000
vt 0.416667 0.500000
vt 0.500000 1.000000
vt 0.583333 0.500000
vt 0.678580 0.500000
vn 0.445347 0.872498 -0.201031
vn 0.521417 0.847351 -0.100598
vn 0.531791 0.842517 -0.085815
vn -0.579582 0.813484 -0.048249
vn -0.579582 0.813484 -0.048249
vn -0.579582 0.813484 -0.048250
vn 0.462671 0.720251 -0.516888
vn 0.462671 0.720251 -0.516888
vn 0.462671 0.720251 -0.516888
vn -0.555198 0.695637 0.455899
vn -0.555198 0.695638 0.455899
vn -0.555198 0.695638 0.455899
vn 0.599799 0.660732 0.451303
vn 0.599799 0.660732 0.451303
vn 0.599799 0.660732 0.451303
vn -0.511878 0.857427 0.052913
vn -0.511878 0.857427 0.052913
vn -0.511878 0.857427 0.052913
vn 0.678052 0.715525 0.168137
s 1
g pPyramid7
usemtl initialShadingGroup
f 4/4/1 7/14/2 2/2/3
s off
f 5/5/4 3/6/5 4/7/6
f 2/8/7 5/9/8 4/7/9
f 3/10/10 6/11/11 7/12/12
f 6/11/13 1/13/14 7/12/15
f 3/3/16 7/14/17 4/4/18
s 1
f 2/2/3 7/14/2 1/1/19
