# This file uses centimeters as units for non-parametric coordinates.

mtllib Truncated tetrahedron.mtl
g default
v -0.500000 0.000000 -0.259808
v -0.500000 0.000000 0.259808
v 0.025000 0.000000 0.562917
v 0.475000 0.000000 0.303109
v 0.475000 0.000000 -0.303109
v 0.025000 0.000000 -0.562917
v -0.325000 0.453989 -0.562917
v -0.175000 0.843122 -0.303109
v -0.325000 0.453989 0.562917
v -0.175000 0.843122 0.303109
v 0.650000 0.453989 0.000000
v 0.350000 0.843122 0.000000
vt 0.305556 0.500000
vt 0.375000 0.177831
vt 0.361111 0.500000
vt 0.375000 0.322169
vt 0.472222 0.500000
vt 0.500000 0.394338
vt 0.527778 0.500000
vt 0.625000 0.322169
vt 0.638889 0.500000
vt 0.625000 0.177831
vt 0.694445 0.500000
vt 0.500000 0.105662
vt 0.666667 0.666667
vt 0.333333 0.666667
vt 0.583333 0.833333
vt 0.416667 0.833333
vt 0.444444 0.666667
vt 0.472222 0.833333
vt 0.555556 0.666667
vt 0.527778 0.833333
vn -0.466539 -0.359675 -0.808069
vn -0.466539 -0.359675 -0.808069
vn -0.466539 -0.359675 -0.808069
vn -0.466539 -0.359675 0.808069
vn -0.466539 -0.359675 0.808069
vn -0.466539 -0.359675 0.808069
vn 0.933078 -0.359675 0.000000
vn 0.933078 -0.359675 0.000000
vn 0.933078 -0.359675 0.000000
vn 0.000000 -1.000000 -0.000000
vn 0.000000 -1.000000 -0.000000
vn 0.000000 -1.000000 -0.000000
vn 0.000000 -1.000000 -0.000000
vn 0.000000 -1.000000 -0.000000
vn 0.000000 -1.000000 -0.000000
vn 0.000000 1.000000 -0.000000
vn 0.000000 1.000000 -0.000000
vn 0.000000 1.000000 -0.000000
vn 0.466539 0.359675 -0.808069
vn 0.466539 0.359675 -0.808069
vn 0.466539 0.359675 -0.808069
vn 0.466539 0.359675 -0.808069
vn 0.466539 0.359675 -0.808069
vn 0.466539 0.359675 -0.808069
vn -0.933078 0.359675 -0.000000
vn -0.933078 0.359675 -0.000000
vn -0.933078 0.359675 -0.000000
vn -0.933078 0.359675 -0.000000
vn -0.933078 0.359675 -0.000000
vn -0.933078 0.359675 -0.000000
vn 0.466539 0.359675 0.808069
vn 0.466539 0.359675 0.808069
vn 0.466539 0.359675 0.808069
vn 0.466539 0.359675 0.808069
vn 0.466539 0.359675 0.808069
vn 0.466539 0.359675 0.808069
s off
g pCone1
usemtl initialShadingGroup
f 7/13/1 6/12/2 1/1/3
f 9/17/4 2/4/5 3/5/6
f 11/19/7 4/8/8 5/9/9
f 1/2/10 6/12/11 5/10/12 4/8/13 3/6/14 2/4/15
f 12/20/16 8/16/17 10/18/18
f 11/19/19 5/9/20 6/11/21 7/13/22 8/15/23 12/20/24
f 7/14/25 1/1/26 2/3/27 9/17/28 10/18/29 8/16/30
f 9/17/31 3/5/32 4/7/33 11/19/34 12/20/35 10/18/36
